# xmcd
#
# Track frame offsets:
#	150
#	12837
#	30990
#	44125
#	56115
#	74800
#	90805
#	106410
#	118725
#	129725
#	139847
#	148977
#	163000
#
# Disc length: 2329 seconds
#
# Revision: 4
# Processed by: cddbd v1.5.1PL2 Copyright (c) Steve Scherf et al.
# Submitted via: audiograbber 1.80
#
DISCID=c209170d
DTITLE=The Del McCoury Band - The Cold Hard Facts
DYEAR=1900
DGENRE=
TTITLE0=The Cold Hard Facts
TTITLE1=Blue Darlin'
TTITLE2=Smoking Gun
TTITLE3=Love Is A Long Road
TTITLE4=Henry Walker
TTITLE5=Baltimore Jonny
TTITLE6=Blackjack County Chains
TTITLE7=Hard On My Heart
TTITLE8=Snake In The House
TTITLE9=The First Time She Left
TTITLE10=Loggin' Man
TTITLE11=Member Of The Blues
TTITLE12=I'll Be There
EXTD=Rounder CD 0363
EXTT0=
EXTT1=
EXTT2=
EXTT3=
EXTT4=
EXTT5=
EXTT6=
EXTT7=
EXTT8=
EXTT9=
EXTT10=
EXTT11=
EXTT12=
PLAYORDER=
